<svg xmlns="http://www.w3.org/2000/svg" viewBox="0 0 400 280" fill="none">
  <defs>
    <linearGradient id="bg3" x1="0" y1="0" x2="1" y2="1"><stop offset="0%" stop-color="#F0F4F8"/><stop offset="100%" stop-color="#DCEAF1"/></linearGradient>
  </defs>
  <rect width="400" height="280" rx="16" fill="url(#bg3)"/>
  <g transform="translate(150, 70)" opacity="0.4">
    <path d="M50 15C47 6 40 0 32 0C24 0 18 4 14 10C10 4 4 0 -2 0C-10 0 -17 6 -19 15C-22 30 0 50 14 65C28 50 50 30 50 15Z" fill="#35B6C8" transform="translate(15, 0) scale(0.9)"/>
    <rect x="5" y="40" width="40" height="50" rx="6" fill="#1B6878" opacity="0.3"/>
    <path d="M15 55H35M15 65H30" stroke="white" stroke-width="2" stroke-linecap="round" opacity="0.5"/>
  </g>
  <text x="200" y="230" text-anchor="middle" font-family="system-ui" font-size="13" fill="#1B6878" opacity="0.7">Restaurações</text>
</svg>
